<?xml version="1.0" standalone="no"?><svg xmlns="http://www.w3.org/2000/svg" viewBox="0 0 1440 320"><path fill="#0099ff" fill-opacity="1" d="M0,224L16,229.3C32,235,64,245,96,218.7C128,192,160,128,192,117.3C224,107,256,149,288,181.3C320,213,352,235,384,240C416,245,448,235,480,213.3C512,192,544,160,576,138.7C608,117,640,107,672,122.7C704,139,736,181,768,165.3C800,149,832,75,864,42.7C896,11,928,21,960,64C992,107,1024,181,1056,218.7C1088,256,1120,256,1152,240C1184,224,1216,192,1248,154.7C1280,117,1312,75,1344,74.7C1376,75,1408,117,1424,138.7L1440,160L1440,0L1424,0C1408,0,1376,0,1344,0C1312,0,1280,0,1248,0C1216,0,1184,0,1152,0C1120,0,1088,0,1056,0C1024,0,992,0,960,0C928,0,896,0,864,0C832,0,800,0,768,0C736,0,704,0,672,0C640,0,608,0,576,0C544,0,512,0,480,0C448,0,416,0,384,0C352,0,320,0,288,0C256,0,224,0,192,0C160,0,128,0,96,0C64,0,32,0,16,0L0,0Z"></path></svg>